<svg width="16" height="16" viewBox="0 0 16 16" fill="none" xmlns="http://www.w3.org/2000/svg">
<g clip-path="url(#clip0)">
<path d="M14.5518 7.34358C14.4102 7.53158 14.2534 7.71221 14.0821 7.88346L12.3669 7.29046L11.6184 5.42002L12.1235 4.91524L15.0457 1.99274C15.8949 3.6993 15.7304 5.78221 14.5518 7.34358Z" fill="#E2E2E2"/>
<path d="M14.5518 7.34357C14.4102 7.53157 14.2534 7.71219 14.0822 7.88344L12.3669 7.29044L11.6184 5.42L12.1235 4.91522L14.5518 7.34357Z" fill="#D8D8D8"/>
<path d="M12.867 7.46368L12.3668 7.29064L11.6184 5.41986L15.0456 1.99268C15.2137 2.33086 15.3424 2.68371 15.4308 3.04439L12.3369 6.13833L12.867 7.46368Z" fill="#D8D8D8"/>
<path d="M6.41185 10.0093L8.39903 10.9851L9.49419 9.88993C11.3173 10.5816 13.456 10.1935 14.924 8.7255L10.1593 3.96081L13.5865 0.533622C11.6741 -0.417972 9.28963 -0.0968784 7.69563 1.49712C6.22763 2.96512 5.83947 5.10387 6.53119 6.92697L5.43604 8.02212L6.41185 10.0093Z" fill="#E2E2E2"/>
<path d="M6.89053 10.2443L6.41194 10.0092L5.43604 8.02212L6.53119 6.92696C5.8395 5.1039 6.22766 2.96512 7.69563 1.49715C9.28963 -0.0968801 11.6741 -0.417974 13.5865 0.53362L13.2562 0.863932C11.5751 0.447432 9.7235 0.896339 8.40919 2.21065C6.94119 3.67865 6.55304 5.8174 7.24475 7.64046L6.14957 8.73562L6.89053 10.2443Z" fill="#D8D8D8"/>
<path d="M7.89339 11.4907L3.99795 15.3862C3.58886 15.7953 3.05242 16 2.51645 16C1.98001 16 1.44379 15.7955 1.03473 15.3864C0.216576 14.5682 0.216576 13.2416 1.03495 12.4232L4.93042 8.52771L7.89339 11.4907Z" fill="#9DC6FB"/>
<path d="M1.60942 15.7942C1.40151 15.6947 1.20686 15.5586 1.03473 15.3865C0.216576 14.5683 0.216576 13.2416 1.03495 12.4232L4.93042 8.52777L5.91239 9.50974L2.01692 13.4052C1.37067 14.0514 1.23476 15.0149 1.60942 15.7942Z" fill="#80B4FB"/>
<path d="M4.01904 9.43732L4.92886 8.5275L7.89142 11.49L6.9816 12.3999L4.01904 9.43732Z" fill="#80B4FB"/>
<path d="M11.2504 6.48774C11.0686 6.3059 10.7738 6.3059 10.5919 6.48774C10.7738 6.3059 10.7738 6.01112 10.5919 5.82928C10.4101 5.64743 10.1153 5.64743 9.93346 5.82928C10.1153 5.64743 10.1153 5.35265 9.93346 5.17081C9.75161 4.98896 9.45683 4.98896 9.27498 5.17081L8.1376 6.30818C7.95576 6.49003 7.95576 6.78484 8.1376 6.96665C8.31945 7.14849 8.61426 7.14849 8.79608 6.96665C8.61423 7.14849 8.61423 7.44331 8.79608 7.62512C8.97792 7.80696 9.27273 7.80696 9.45455 7.62512C9.2727 7.80696 9.2727 8.10178 9.45455 8.28359C9.63639 8.46543 9.93121 8.46543 10.113 8.28359L11.2504 7.14621C11.4322 6.9644 11.4322 6.66959 11.2504 6.48774Z" fill="#D8D8D8"/>
<path d="M10.7416 7.65535L10.1131 8.28382C9.93132 8.46563 9.63632 8.46541 9.45451 8.2836C9.27269 8.10179 9.27269 7.80701 9.45451 7.62519C9.27269 7.80701 8.97791 7.80701 8.7961 7.62519C8.61429 7.44338 8.61429 7.1486 8.7961 6.96678C8.61429 7.1486 8.3195 7.1486 8.13769 6.96678C7.95588 6.78497 7.95566 6.48997 8.13747 6.30816L8.76594 5.67969C8.58413 5.8615 8.58435 6.1565 8.76616 6.33831C8.94797 6.52013 9.24276 6.52013 9.42457 6.33831C9.24276 6.52013 9.24276 6.81491 9.42457 6.99672C9.60638 7.17853 9.90116 7.17853 10.083 6.99672C9.90116 7.17853 9.90116 7.47332 10.083 7.65513C10.2648 7.83694 10.5598 7.83716 10.7416 7.65535Z" fill="#C4C4C4"/>
<path d="M8.46128 11.0472L5.374 7.95991C5.09469 7.6806 4.64184 7.6806 4.36256 7.95991C4.08325 8.23922 4.08325 8.69207 4.36256 8.97135L7.44984 12.0586C7.72915 12.3379 8.182 12.3379 8.46128 12.0586C8.74059 11.7793 8.74059 11.3265 8.46128 11.0472Z" fill="#9DC6FB"/>
<path d="M5.43271 9.74565C5.43271 9.92837 5.50246 10.1115 5.64221 10.2512L4.36255 8.97159C4.22283 8.83187 4.15305 8.64868 4.15283 8.46574C4.15305 8.2828 4.2228 8.09965 4.36255 7.9599C4.6418 7.68065 5.09452 7.68065 5.37399 7.96012L6.65364 9.23977C6.37439 8.96052 5.92146 8.9603 5.64221 9.23955C5.50246 9.3793 5.43271 9.56249 5.43271 9.74565Z" fill="#80B4FB"/>
</g>
<defs>
<clipPath id="clip0">
<rect width="16" height="16" fill="white"/>
</clipPath>
</defs>
</svg>
