<svg width="16" height="16" viewBox="0 0 16 16" fill="none" xmlns="http://www.w3.org/2000/svg">
<path d="M13.6821 1.54526V15.6781C13.6821 15.8558 13.5378 16 13.3601 16H2.6398C2.4621 16 2.31787 15.8558 2.31787 15.6781V1.54526C2.31787 1.36755 2.4621 1.22333 2.6398 1.22333H13.3601C13.5378 1.22333 13.6821 1.36755 13.6821 1.54526Z" fill="#FAD207"/>
<path d="M2.83301 2.81201V15.2569C2.83301 15.3828 2.93506 15.4849 3.06097 15.4849H9.55681C9.64218 15.4849 9.72408 15.4509 9.78444 15.3906L12.2656 12.9094V2.63981H3.47449L3.42021 2.24799L2.97627 2.54423C2.88674 2.60395 2.83301 2.70442 2.83301 2.81201Z" fill="#FAA515"/>
<path d="M12.7163 2.51108V12.4588L10.7847 13.167L10.1408 15.0342H3.60562C3.42782 15.0342 3.28369 14.8901 3.28369 14.7123V2.51108C3.28369 2.33328 3.42782 2.18915 3.60562 2.18915H12.3944C12.5722 2.18915 12.7163 2.33328 12.7163 2.51108Z" fill="#F5F5F5"/>
<path d="M12.7163 12.4588L10.1409 15.0342V12.7807C10.1409 12.6029 10.285 12.4588 10.4628 12.4588H12.7163Z" fill="#E6E6E6"/>
<path d="M11.2398 2.18915V2.81466C11.2398 3.25828 10.8786 3.61949 10.435 3.61949H5.56484C5.12122 3.61949 4.76001 3.25828 4.76001 2.81466V2.18915H11.2398Z" fill="#E6E6E6"/>
<path d="M4.76001 1.22333H11.2398V2.18912H4.76001V1.22333Z" fill="#FAA515"/>
<path d="M10.7568 1.22266V2.81451C10.7568 2.99232 10.6127 3.13645 10.4349 3.13645H5.56485C5.38705 3.13645 5.24292 2.99232 5.24292 2.81451V1.22266L7.02986 1.22269C7.0061 1.12061 6.99802 1.0125 7.00832 0.901049C7.05281 0.419922 7.44718 0.0356967 7.92921 0.00244118C8.51119 -0.0377037 8.99576 0.42253 8.99576 0.995922C8.99576 1.07393 8.98678 1.14987 8.96982 1.22269L10.7568 1.22266Z" fill="#50758D"/>
<path d="M5.53368 6.37735C5.47139 6.37735 5.41138 6.35327 5.36634 6.30993L4.55067 5.52565C4.45454 5.43322 4.45154 5.28037 4.54397 5.18427C4.6364 5.08818 4.78928 5.08518 4.88535 5.17758L5.5192 5.78709L6.51322 4.65869C6.60134 4.55867 6.75393 4.54894 6.85402 4.63712C6.95405 4.72527 6.96374 4.87786 6.87559 4.97792L5.71483 6.29554C5.67128 6.34496 5.60947 6.37445 5.54366 6.37715C5.54035 6.37728 5.537 6.37735 5.53368 6.37735Z" fill="#5ED297"/>
<path d="M11.0743 5.7185H7.66186C7.52848 5.7185 7.42041 5.61042 7.42041 5.47705C7.42041 5.34367 7.52848 5.2356 7.66186 5.2356H11.0743C11.2077 5.2356 11.3158 5.34367 11.3158 5.47705C11.3158 5.61042 11.2077 5.7185 11.0743 5.7185Z" fill="#50758D"/>
<path d="M5.53368 9.2178C5.47139 9.2178 5.41138 9.19372 5.36634 9.15039L4.55067 8.3661C4.45454 8.27367 4.45154 8.12082 4.54397 8.02472C4.6364 7.92859 4.78928 7.9256 4.88535 8.01803L5.51958 8.62786L6.51529 7.50203C6.60359 7.40214 6.75619 7.39277 6.85611 7.48114C6.95601 7.56948 6.96538 7.72207 6.87701 7.82197L5.71454 9.13632C5.67096 9.18558 5.60918 9.21494 5.54344 9.21761C5.54019 9.21774 5.5369 9.2178 5.53368 9.2178Z" fill="#5ED297"/>
<path d="M11.0743 8.54728H7.66186C7.52848 8.54728 7.42041 8.43921 7.42041 8.30583C7.42041 8.17246 7.52848 8.06439 7.66186 8.06439H11.0743C11.2077 8.06439 11.3158 8.17246 11.3158 8.30583C11.3158 8.43921 11.2077 8.54728 11.0743 8.54728Z" fill="#50758D"/>
<path d="M11.0744 11.4811H10.511C10.3776 11.4811 10.2695 11.373 10.2695 11.2397C10.2695 11.1063 10.3776 10.9982 10.511 10.9982H11.0744C11.2077 10.9982 11.3158 11.1063 11.3158 11.2397C11.3158 11.373 11.2077 11.4811 11.0744 11.4811Z" fill="#50758D"/>
<path d="M9.38419 11.4811H7.66186C7.52848 11.4811 7.42041 11.373 7.42041 11.2397C7.42041 11.1063 7.52848 10.9982 7.66186 10.9982H9.38419C9.51756 10.9982 9.62563 11.1063 9.62563 11.2397C9.62563 11.373 9.51756 11.4811 9.38419 11.4811Z" fill="#50758D"/>
<path d="M6.40641 12.2215H4.92553C4.79215 12.2215 4.68408 12.1134 4.68408 11.98V10.4991C4.68408 10.3658 4.79215 10.2577 4.92553 10.2577H6.40641C6.53979 10.2577 6.64786 10.3658 6.64786 10.4991V11.98C6.64786 12.1134 6.53979 12.2215 6.40641 12.2215ZM5.16698 11.7386H6.16496V10.7406H5.16698V11.7386Z" fill="#FD646F"/>
</svg>
